<svg width="20" height="20" viewBox="0 0 20 20" fill="none" xmlns="http://www.w3.org/2000/svg">
<path fill-rule="evenodd" clip-rule="evenodd" d="M19.3306 18.4694L14.6366 13.7762C17.4629 10.383 17.1204 5.36693 13.8591 2.38935C10.5978 -0.588237 5.57133 -0.474001 2.44866 2.64867C-0.674014 5.77134 -0.788249 10.7978 2.18934 14.0591C5.16692 17.3204 10.183 17.6629 13.5762 14.8366L18.2694 19.5306C18.5624 19.8237 19.0376 19.8237 19.3306 19.5306C19.6237 19.2376 19.6237 18.7624 19.3306 18.4694ZM1.54999 8.5C1.54999 4.77208 4.57207 1.75 8.29999 1.75C12.0279 1.75 15.05 4.77208 15.05 8.5C15.05 12.2279 12.0279 15.25 8.29999 15.25C4.57378 15.2459 1.55412 12.2262 1.54999 8.5Z" fill="#994D52"/>
</svg>
