<svg width="19" height="18" viewBox="0 0 19 18" fill="none" xmlns="http://www.w3.org/2000/svg">
<path fill-rule="evenodd" clip-rule="evenodd" d="M16.7 0H1.69995C0.871524 0 0.199951 0.671573 0.199951 1.5V16.5C0.199951 17.3284 0.871524 18 1.69995 18H16.7C17.5284 18 18.2 17.3284 18.2 16.5V1.5C18.2 0.671573 17.5284 0 16.7 0ZM16.7 1.5V11.25H14.0093C13.6116 11.249 13.2301 11.4073 12.95 11.6897L11.1396 13.5H7.26026L5.44995 11.6897C5.16961 11.4071 4.78768 11.2487 4.38964 11.25H1.69995V1.5H16.7ZM16.7 16.5H1.69995V12.75H4.38964L6.19995 14.5603C6.48029 14.8429 6.86222 15.0013 7.26026 15H11.1396C11.5377 15.0013 11.9196 14.8429 12.2 14.5603L14.0103 12.75H16.7V16.5Z" fill="#994D52"/>
</svg>
