<svg width="18" height="18" viewBox="0 0 18 18" fill="none" xmlns="http://www.w3.org/2000/svg">
<path fill-rule="evenodd" clip-rule="evenodd" d="M16.5 0H1.5C0.671573 0 0 0.671573 0 1.5V16.5C0 17.3284 0.671573 18 1.5 18H16.5C17.3284 18 18 17.3284 18 16.5V1.5C18 0.671573 17.3284 0 16.5 0ZM16.5 16.5H1.5V1.5H16.5V16.5ZM13.5 9C13.5 9.41421 13.1642 9.75 12.75 9.75H9.75V12.75C9.75 13.1642 9.41421 13.5 9 13.5C8.58579 13.5 8.25 13.1642 8.25 12.75V9.75H5.25C4.83579 9.75 4.5 9.41421 4.5 9C4.5 8.58579 4.83579 8.25 5.25 8.25H8.25V5.25C8.25 4.83579 8.58579 4.5 9 4.5C9.41421 4.5 9.75 4.83579 9.75 5.25V8.25H12.75C13.1642 8.25 13.5 8.58579 13.5 9Z" fill="#994D52"/>
</svg>
